<svg width="30" height="30" viewBox="0 0 30 30" fill="none" xmlns="http://www.w3.org/2000/svg">
<path fill-rule="evenodd" clip-rule="evenodd" d="M15 0C6.71573 0 0 6.71654 0 15.0018C0 23.2871 6.71573 30.0036 15 30.0036C23.2843 30.0036 30 23.2871 30 15.0018C30 6.71654 23.2843 0 15 0ZM21.461 11.6701H17.2239V10.456H21.461V11.6701ZM21.0875 12.6892C20.5776 12.4637 20.0047 12.3504 19.3679 12.3504C18.2964 12.3504 17.4262 12.6855 16.7536 13.351C16.0828 14.0184 15.747 14.9772 15.747 16.2275C15.747 17.5604 16.1176 18.5238 16.8636 19.1151C17.6059 19.7073 18.4648 20.0024 19.4384 20.0024C20.6172 20.0024 21.5344 19.6516 22.1891 18.9508C22.6087 18.509 22.8458 18.0736 22.8975 17.6467H20.9455C20.8326 17.8583 20.7009 18.0235 20.5513 18.1433C20.2794 18.3632 19.9248 18.4737 19.4911 18.4737C19.0791 18.4737 18.7282 18.3827 18.4365 18.2017C17.9549 17.9112 17.7028 17.4035 17.6708 16.6804H22.9982C23.0066 16.0576 22.9859 15.5787 22.9342 15.2482C22.8458 14.683 22.652 14.1855 22.35 13.7566C22.0189 13.2703 21.5983 12.9139 21.0875 12.6892ZM11.778 10.0012C12.984 10.0188 13.8373 10.3651 14.3406 11.0408C14.6425 11.4557 14.794 11.9513 14.794 12.5296C14.794 13.1246 14.6425 13.6044 14.3368 13.9664C14.1656 14.1688 13.9144 14.3544 13.5823 14.5215C14.0866 14.7034 14.4666 14.9902 14.7253 15.3828C14.9812 15.7745 15.1101 16.2516 15.1101 16.8122C15.1101 17.3905 14.9633 17.9094 14.6689 18.3679C14.4826 18.6714 14.2493 18.9276 13.969 19.1355C13.6538 19.374 13.2822 19.5365 12.8523 19.6256C12.4224 19.7138 11.9577 19.7564 11.4553 19.7564H7V10.0012H11.778Z" fill="#CE4115"/>
<path fill-rule="evenodd" clip-rule="evenodd" d="M8.97083 11.6951H11.1232C11.5964 11.6951 11.9859 11.7461 12.2926 11.8473C12.6463 11.9939 12.8231 12.2937 12.8231 12.7495C12.8231 13.1579 12.6886 13.4438 12.4214 13.6053C12.1524 13.7668 11.8034 13.8475 11.3753 13.8475H8.97083V11.6951ZM18.2277 14.3191C18.4977 14.0443 18.8796 13.9069 19.3688 13.9069C19.8203 13.9069 20.1976 14.036 20.5043 14.2949C20.8072 14.5557 20.9784 14.9344 21.0132 15.4357H17.7178C17.7874 14.966 17.9577 14.5938 18.2277 14.3191ZM11.4055 15.4616H8.97083V18.0634H11.3716C11.8006 18.0634 12.1355 18.0058 12.3735 17.8916C12.8071 17.6782 13.0235 17.2735 13.0235 16.6739C13.0235 16.1652 12.8147 15.8171 12.3942 15.6269C12.159 15.5211 11.8288 15.4654 11.4055 15.4616Z" fill="#CE4115"/>
</svg>
