<svg width="22" height="23" viewBox="0 0 22 23" fill="none" xmlns="http://www.w3.org/2000/svg">
<path fill-rule="evenodd" clip-rule="evenodd" d="M11 0.5C4.92487 0.5 0 5.42487 0 11.5C0 17.5751 4.92487 22.5 11 22.5C17.0751 22.5 22 17.5751 22 11.5C22 5.42487 17.0751 0.5 11 0.5ZM15.738 9.05705H12.6309V8.16684H15.738V9.05705ZM15.4642 9.8043C15.0903 9.63892 14.6702 9.55589 14.2031 9.55589C13.4174 9.55589 12.7792 9.80158 12.286 10.2896C11.7941 10.7789 11.5478 11.482 11.5478 12.3987C11.5478 13.376 11.8196 14.0825 12.3667 14.516C12.911 14.9502 13.5408 15.1667 14.2549 15.1667C15.1193 15.1667 15.7919 14.9094 16.272 14.3955C16.5797 14.0716 16.7536 13.7524 16.7915 13.4393H15.36C15.2773 13.5945 15.1807 13.7156 15.071 13.8034C14.8716 13.9647 14.6115 14.0457 14.2935 14.0457C13.9913 14.0457 13.734 13.979 13.5201 13.8463C13.1669 13.6333 12.982 13.261 12.9586 12.7308H16.8653C16.8715 12.2742 16.8564 11.923 16.8184 11.6807C16.7536 11.2662 16.6115 10.9014 16.39 10.587C16.1472 10.2304 15.8388 9.969 15.4642 9.8043ZM8.63723 7.83333C9.52165 7.84626 10.1474 8.10012 10.5164 8.59559C10.7379 8.89981 10.849 9.26325 10.849 9.68725C10.849 10.1235 10.7379 10.4754 10.5137 10.7408C10.3881 10.8892 10.2039 11.0253 9.96041 11.1478C10.3302 11.2812 10.6089 11.4915 10.7986 11.7794C10.9863 12.0666 11.0808 12.4164 11.0808 12.8275C11.0808 13.2515 10.9731 13.6319 10.7572 13.9682C10.6206 14.1907 10.4495 14.3785 10.2439 14.531C10.0128 14.7059 9.74034 14.825 9.42507 14.8903C9.1098 14.955 8.769 14.9863 8.40061 14.9863H5.13337V7.83333H8.63723Z" fill="#FBF1E3"/>
<path fill-rule="evenodd" clip-rule="evenodd" d="M6.57864 9.07538H8.15707C8.50408 9.07538 8.78969 9.11281 9.01459 9.18699C9.27398 9.29453 9.40368 9.51436 9.40368 9.84853C9.40368 10.148 9.30502 10.3576 9.1091 10.476C8.9118 10.5945 8.65585 10.6537 8.34196 10.6537H6.57864V9.07538ZM13.367 10.9994C13.5649 10.798 13.845 10.6972 14.2038 10.6972C14.5349 10.6972 14.8115 10.7918 15.0364 10.9817C15.2586 11.173 15.3841 11.4507 15.4097 11.8182H12.993C13.0441 11.4738 13.169 11.2009 13.367 10.9994ZM8.36401 11.8373H6.57861V13.7449H8.33917C8.65375 13.7449 8.89935 13.7028 9.07388 13.619C9.39192 13.4625 9.55059 13.1658 9.55059 12.7261C9.55059 12.3531 9.39744 12.0979 9.08906 11.9584C8.91659 11.8808 8.67445 11.84 8.36401 11.8373Z" fill="#FBF1E3"/>
</svg>
