<svg width="42" height="25" viewBox="0 0 42 25" fill="none" xmlns="http://www.w3.org/2000/svg">
<path d="M18.48 2.12C18.48 2.81333 18.2667 3.32 17.84 3.64C17.4133 3.96 16.8267 4.12 16.08 4.12C15.7067 4.12 15.2 4.09333 14.56 4.04C13.92 3.93333 13.28 3.88 12.64 3.88C10.2933 3.88 8.45333 4.49333 7.12 5.72C5.84 6.89333 5.2 8.14666 5.2 9.48C5.2 10.0133 5.33333 10.4133 5.6 10.68C5.86667 10.9467 6.18667 11.08 6.56 11.08C7.09333 11.08 7.57333 10.92 8 10.6C8.48 10.2267 8.96 9.82666 9.44 9.4C9.92 8.92 10.5067 8.52 11.2 8.2C11.8933 7.82666 12.7467 7.64 13.76 7.64C15.6267 7.64 17.1467 8.25333 18.32 9.48C19.5467 10.6533 20.16 12.4667 20.16 14.92C20.16 17.4267 19.3867 19.64 17.84 21.56C16.2933 23.48 13.9467 24.44 10.8 24.44C7.6 24.44 5.06667 23.4267 3.2 21.4C1.38667 19.32 0.48 16.36 0.48 12.52C0.48 9.05333 1.81333 6.12 4.48 3.72C7.2 1.26666 11.04 0.0399981 16 0.0399981C16.6933 0.0399981 17.28 0.199998 17.76 0.519997C18.24 0.786663 18.48 1.32 18.48 2.12ZM39.44 2.12C39.44 2.81333 39.2267 3.32 38.8 3.64C38.3733 3.96 37.7867 4.12 37.04 4.12C36.6667 4.12 36.16 4.09333 35.52 4.04C34.88 3.93333 34.24 3.88 33.6 3.88C31.2533 3.88 29.4133 4.49333 28.08 5.72C26.8 6.89333 26.16 8.14666 26.16 9.48C26.16 10.0133 26.2933 10.4133 26.56 10.68C26.8267 10.9467 27.1467 11.08 27.52 11.08C28.0533 11.08 28.5333 10.92 28.96 10.6C29.44 10.2267 29.92 9.82666 30.4 9.4C30.88 8.92 31.4667 8.52 32.16 8.2C32.8533 7.82666 33.7067 7.64 34.72 7.64C36.5867 7.64 38.1067 8.25333 39.28 9.48C40.5067 10.6533 41.12 12.4667 41.12 14.92C41.12 17.4267 40.3467 19.64 38.8 21.56C37.2533 23.48 34.9067 24.44 31.76 24.44C28.56 24.44 26.0267 23.4267 24.16 21.4C22.3467 19.32 21.44 16.36 21.44 12.52C21.44 9.05333 22.7733 6.12 25.44 3.72C28.16 1.26666 32 0.0399981 36.96 0.0399981C37.6533 0.0399981 38.24 0.199998 38.72 0.519997C39.2 0.786663 39.44 1.32 39.44 2.12Z" fill="#CE4115"/>
</svg>
